<?xml version="1.0" encoding="UTF-8"?>
<svg id="Layer_2" xmlns="http://www.w3.org/2000/svg" viewBox="0 0 282 282">
  <defs>
    <style>
      .cls-1 {
        fill: #ffb3c7;
        stroke-width: 16px;
      }

      .cls-1, .cls-2 {
        stroke: #000;
        stroke-miterlimit: 10;
      }

      .cls-2 {
        stroke-width: 4px;
      }

      .cls-2, .cls-3 {
        fill: #0a0b09;
      }
    </style>
  </defs>
  <g id="Layer_1-2" data-name="Layer_1">
    <g>
      <circle class="cls-1" cx="141" cy="141" r="133"/>
      <g>
        <g>
          <path class="cls-3" d="M141,188.4c-26.13,0-47.4-21.26-47.4-47.4s21.26-47.4,47.4-47.4,47.4,21.26,47.4,47.4-21.26,47.4-47.4,47.4ZM141,100.87c-22.13,0-40.13,18-40.13,40.13s18,40.13,40.13,40.13,40.13-18,40.13-40.13-18-40.13-40.13-40.13Z"/>
          <path d="M141,95.6c25.03,0,45.4,20.36,45.4,45.4s-20.36,45.4-45.4,45.4-45.4-20.36-45.4-45.4,20.36-45.4,45.4-45.4M141,183.13c23.23,0,42.13-18.9,42.13-42.13s-18.9-42.13-42.13-42.13-42.13,18.9-42.13,42.13,18.9,42.13,42.13,42.13M141,91.6c-27.28,0-49.4,22.11-49.4,49.4s22.11,49.4,49.4,49.4,49.4-22.11,49.4-49.4-22.11-49.4-49.4-49.4h0ZM141,179.13c-21.06,0-38.13-17.07-38.13-38.13s17.07-38.13,38.13-38.13,38.13,17.07,38.13,38.13-17.07,38.13-38.13,38.13h0Z"/>
        </g>
        <g>
          <path class="cls-3" d="M141,185c-24.26,0-44-19.74-44-44s19.74-44,44-44,44,19.74,44,44-19.74,44-44,44ZM141,103.49c-20.68,0-37.51,16.83-37.51,37.51s16.83,37.51,37.51,37.51,37.51-16.83,37.51-37.51-16.83-37.51-37.51-37.51Z"/>
          <path d="M141,99c23.16,0,42,18.84,42,42s-18.84,42-42,42-42-18.84-42-42,18.84-42,42-42M141,180.51c21.78,0,39.51-17.72,39.51-39.51s-17.72-39.51-39.51-39.51-39.51,17.72-39.51,39.51,17.72,39.51,39.51,39.51M141,95c-25.41,0-46,20.59-46,46s20.59,46,46,46,46-20.59,46-46-20.59-46-46-46h0ZM141,176.51c-19.61,0-35.51-15.9-35.51-35.51s15.9-35.51,35.51-35.51,35.51,15.9,35.51,35.51-15.9,35.51-35.51,35.51h0Z"/>
        </g>
        <g>
          <path class="cls-2" d="M67.09,136.77c-1.92-8.34-9.39-14.56-18.3-14.56-10.37,0-18.78,8.41-18.78,18.78s8.41,18.78,18.78,18.78c8.99,0,16.5-6.31,18.35-14.74.29-1.3.44-2.65.44-4.04s-.17-2.87-.48-4.23ZM48.78,151.89c-6.02,0-10.89-4.88-10.89-10.89s4.88-10.89,10.89-10.89,10.89,4.88,10.89,10.89-4.88,10.89-10.89,10.89Z"/>
          <path class="cls-2" d="M233.22,122.22c-8.92,0-16.39,6.22-18.3,14.56-.31,1.36-.48,2.77-.48,4.23s.15,2.74.44,4.04c1.85,8.43,9.36,14.74,18.35,14.74,10.37,0,18.78-8.41,18.78-18.78s-8.41-18.78-18.78-18.78ZM233.22,151.89c-6.02,0-10.89-4.88-10.89-10.89s4.88-10.89,10.89-10.89,10.89,4.88,10.89,10.89-4.88,10.89-10.89,10.89Z"/>
          <path class="cls-2" d="M91.56,196c-.7-1.09-1.53-2.12-2.49-3.08-1.06-1.06-2.2-1.96-3.42-2.71-7.24-4.47-16.87-3.57-23.14,2.71-7.33,7.33-7.33,19.23,0,26.56,7.33,7.33,19.23,7.33,26.56,0,6.38-6.38,7.21-16.21,2.49-23.48ZM83.49,213.91c-4.26,4.26-11.15,4.26-15.4,0-4.26-4.26-4.26-11.15,0-15.4,4.26-4.26,11.15-4.26,15.4,0s4.26,11.15,0,15.4Z"/>
          <path class="cls-2" d="M219.49,62.51c-7.33-7.33-19.23-7.33-26.56,0-6.28,6.28-7.18,15.9-2.71,23.14.75,1.22,1.65,2.36,2.71,3.42.95.95,1.98,1.78,3.07,2.49,7.28,4.72,17.11,3.89,23.49-2.49,7.33-7.33,7.33-19.23,0-26.56ZM213.91,83.49c-4.26,4.26-11.15,4.26-15.4,0-4.26-4.26-4.26-11.15,0-15.4,4.26-4.26,11.15-4.26,15.4,0,4.26,4.26,4.26,11.15,0,15.4Z"/>
          <path class="cls-2" d="M144.94,214.85c-1.27-.27-2.59-.42-3.94-.42-1.49,0-2.93.17-4.32.5-8.29,1.95-14.46,9.4-14.46,18.28,0,10.37,8.41,18.78,18.78,18.78s18.78-8.41,18.78-18.78c0-9.02-6.36-16.55-14.84-18.36ZM141,244.11c-6.02,0-10.89-4.88-10.89-10.89s4.88-10.89,10.89-10.89,10.89,4.88,10.89,10.89-4.88,10.89-10.89,10.89Z"/>
          <path class="cls-2" d="M141,30c-10.37,0-18.78,8.41-18.78,18.78,0,8.88,6.17,16.33,14.46,18.28,1.39.33,2.83.5,4.32.5,1.35,0,2.67-.14,3.94-.42,8.48-1.81,14.84-9.35,14.84-18.36,0-10.37-8.41-18.78-18.78-18.78ZM141,59.68c-6.02,0-10.89-4.88-10.89-10.89s4.88-10.89,10.89-10.89,10.89,4.88,10.89,10.89-4.88,10.89-10.89,10.89Z"/>
          <path class="cls-2" d="M219.49,192.93c-6.34-6.34-16.11-7.2-23.37-2.56-1.13.72-2.2,1.57-3.19,2.56s-1.9,2.13-2.64,3.3c-4.55,7.25-3.67,16.95,2.64,23.26,7.33,7.33,19.23,7.33,26.56,0,7.33-7.33,7.33-19.23,0-26.56ZM213.91,213.91c-4.26,4.26-11.15,4.26-15.4,0-4.26-4.26-4.26-11.15,0-15.4,4.26-4.26,11.15-4.26,15.4,0,4.26,4.26,4.26,11.15,0,15.4Z"/>
          <path class="cls-2" d="M89.07,62.51c-7.33-7.33-19.23-7.33-26.56,0-7.33,7.33-7.33,19.23,0,26.56,6.31,6.31,16.01,7.19,23.26,2.64,1.17-.74,2.28-1.62,3.3-2.64.99-.99,1.84-2.06,2.56-3.19,4.64-7.26,3.78-17.03-2.56-23.37ZM68.09,83.49c-4.26-4.26-4.26-11.15,0-15.4s11.15-4.26,15.4,0,4.26,11.15,0,15.4c-4.26,4.26-11.15,4.26-15.4,0Z"/>
          <polygon class="cls-2" points="140.81 135.06 144.94 130.93 144.94 150.88 140.81 146.75 136.68 150.88 136.68 130.93 140.81 135.06"/>
          <path class="cls-2" d="M144.94,61.46v39.61c-1.24-.12-2.49-.17-3.76-.17-1.52,0-3.03.08-4.51.24v-39.69h8.26Z"/>
          <path class="cls-2" d="M141.19,184.67c1.27,0,2.52-.06,3.76-.17v35.86h-8.26v-35.93c1.48.16,2.99.24,4.51.24Z"/>
          <path class="cls-2" d="M91.63,85.88l23.84,23.84c-2.18,1.69-4.19,3.61-6,5.69l-23.71-23.71-4.06-4.06,5.84-5.84,4.08,4.08Z"/>
          <polygon class="cls-2" points="150.79 145.04 144.94 145.04 144.94 150.88 130.84 136.77 136.68 136.77 136.68 130.93 150.79 145.04"/>
          <path class="cls-2" d="M199.91,194.16l-5.84,5.84-3.78-3.78-21.74-21.74c2.09-1.8,4-3.81,5.69-6l21.87,21.87,3.79,3.79Z"/>
          <path class="cls-2" d="M99.74,136.77c-.29,1.96-.43,3.97-.43,6.01,0,.76.02,1.51.06,2.25h-38v-8.26h38.37Z"/>
          <polygon class="cls-2" points="146.66 140.91 150.79 145.04 130.84 145.04 134.97 140.91 130.84 136.77 150.79 136.77 146.66 140.91"/>
          <path class="cls-2" d="M220.26,136.77v8.26h-37.25c.05-.75.06-1.5.06-2.25,0-2.04-.15-4.05-.43-6.01h37.62Z"/>
          <path class="cls-2" d="M113.42,174.14l-21.87,21.87-4,4-5.84-5.84,3.94-3.94,22.15-22.15c1.67,2.2,3.55,4.24,5.62,6.07Z"/>
          <polygon class="cls-2" points="150.79 136.77 136.68 150.88 136.68 145.04 130.84 145.04 144.94 130.93 144.94 136.77 150.79 136.77"/>
          <path class="cls-2" d="M199.91,87.65l-3.91,3.91-23.46,23.46c-1.83-2.07-3.86-3.96-6.07-5.62l27.59-27.59,5.84,5.84Z"/>
        </g>
        <polygon class="cls-3" points="146.66 140.91 150.79 145.04 144.94 145.04 144.94 150.88 140.81 146.75 136.68 150.88 136.68 145.04 130.84 145.04 134.97 140.91 130.84 136.77 136.68 136.77 136.68 130.93 140.81 135.06 144.94 130.93 144.94 136.77 150.79 136.77 146.66 140.91"/>
      </g>
    </g>
  </g>
</svg>