<svg xmlns="http://www.w3.org/2000/svg" width="233.87" height="86.8" viewBox="0 0 233.87 86.8"><g transform="translate(-806 -920)"><path d="M164.2,34.44,197.08,0h-25.2L149.14,23.94V49.16l.42-.44L174.28,85.8H199L164.2,34.44Z" transform="translate(806 920)" fill="#fff"/><path d="M216.72,18.99c2.48-2.12,5.67-4.12,7.83-6.03a4.47,4.47,0,0,0,1.8-3.4A3.279,3.279,0,0,0,222.79,6a3.591,3.591,0,0,0-2.96,1.24,6.009,6.009,0,0,0-1.24,4.04h-6.31c0-3.2.56-5.15,1.88-6.95,1.56-2.24,4.52-3.76,8.79-3.76,6.59,0,10.15,3.92,10.15,8.75,0,3.8-2.12,5.99-4.56,7.87-2.44,2-5.39,3.68-7.31,5.71v.04h11.91v5.55H211.88c.08-4.6,2.12-7.23,4.83-9.51Z" transform="translate(806 920)" fill="#fff"/><path d="M185.66,50.07a10.415,10.415,0,0,1-3.31-8.15h6.93c.17,3.18,1.74,5.4,5.49,5.4,3.01,0,4.66-1.66,4.66-4.14,0-2.62-1.83-3.92-5.1-3.92h-1.79v-5.1h1.61c2.79,0,4.62-1.22,4.62-3.49,0-2.05-1.44-3.4-3.92-3.4-3.18,0-4.58,2-4.75,4.58h-6.84c.13-5.93,4.27-10.07,11.68-10.07,6.58,0,11.07,3.14,11.07,8.41,0,3.05-1.87,4.93-4.53,5.97v.09a7.071,7.071,0,0,1,5.41,7.32c0,6.41-5.54,9.37-11.81,9.37-4.23,0-7.32-1-9.42-2.88Z" transform="translate(806 920)" fill="#fff"/><path d="M219.24,76.85H201.47V68.22l17.65-21.44h9.24V69.72h5.51v7.13h-5.51v8.47h-9.13V76.85Zm0-7.13V56.63h-.11L208.55,69.61v.11Z" transform="translate(806 920)" fill="#fff"/><path d="M122.6,1V41.68c0,3,.24,13.32.24,13.32h-.24s-4.56-8.52-5.88-10.92L95.39,7.96V41.84c.58,1.07,1.08,1.96,1.41,2.48L122,86.8h21.36V1Z" transform="translate(806 920)" fill="#fff"/><path d="M0,1H21.24V68.8H59.76v18H0Z" transform="translate(806 920)" fill="#fff"/><path d="M67.92,41.78V86.8H89.16V41.78H67.92Zm0-8v-27H89.16v27Z" transform="translate(806 920)" fill="#ffb3c7"/><path d="M67.92,41.78V86.8H89.16V41.78H67.92Z" transform="translate(806 920)" fill="#fff"/></g></svg>