<?xml version="1.0" encoding="UTF-8"?>
<svg id="Layer_2" xmlns="http://www.w3.org/2000/svg" viewBox="0 0 233.89 86.8">
  <defs>
    <style>
      .cls-1 {
        fill: #ffb3c7;
      }
    </style>
  </defs>
  <g id="Layer_1-2" data-name="Layer_1">
    <g>
      <path d="M164.2,34.44L197.08,0h-25.2l-22.74,23.94v25.22l.42-.44,24.72,37.08h24.72l-34.8-51.36Z"/>
      <path d="M216.72,18.99c2.48-2.12,5.67-4.12,7.83-6.03,1.12-1,1.8-2.04,1.8-3.4,0-2.12-1.24-3.56-3.56-3.56-1.28,0-2.28.4-2.96,1.24-.8.92-1.2,2.16-1.24,4.04h-6.31c0-3.2.56-5.15,1.88-6.95,1.56-2.24,4.52-3.76,8.79-3.76,6.59,0,10.15,3.92,10.15,8.75,0,3.8-2.12,5.99-4.56,7.87-2.44,2-5.39,3.68-7.31,5.71v.04h11.91v5.55h-21.26c.08-4.6,2.12-7.23,4.83-9.51Z"/>
      <path d="M185.66,50.07c-2.18-1.92-3.31-4.71-3.31-8.15h6.93c.17,3.18,1.74,5.4,5.49,5.4,3.01,0,4.66-1.66,4.66-4.14,0-2.62-1.83-3.92-5.1-3.92h-1.79v-5.1h1.61c2.79,0,4.62-1.22,4.62-3.49,0-2.05-1.44-3.4-3.92-3.4-3.18,0-4.58,2-4.75,4.58h-6.84c.13-5.93,4.27-10.07,11.68-10.07,6.58,0,11.07,3.14,11.07,8.41,0,3.05-1.87,4.93-4.53,5.97v.09c3.27,1,5.41,3.31,5.41,7.32,0,6.41-5.54,9.37-11.81,9.37-4.23,0-7.32-1-9.42-2.88Z"/>
      <path d="M219.24,76.85h-17.77v-8.63l17.65-21.44h9.24v22.94h5.51v7.13h-5.51v8.47h-9.13v-8.47ZM219.24,69.72v-13.09h-.11l-10.58,12.98v.11h10.69Z"/>
      <path d="M122.6,1v40.68c0,3,.24,13.32.24,13.32h-.24s-4.56-8.52-5.88-10.92L95.39,7.96v33.88c.58,1.07,1.08,1.96,1.41,2.48l25.2,42.48h21.36V1h-20.76Z"/>
      <path d="M0,1h21.24v67.8h38.52v18H0V1Z"/>
      <path class="cls-1" d="M67.92,41.78v45.02h21.24v-45.02h-21.24ZM67.92,33.78V6.78h21.24v27h-21.24Z"/>
      <path d="M67.92,41.78v45.02h21.24v-45.02h-21.24Z"/>
    </g>
  </g>
</svg>