<svg xmlns="http://www.w3.org/2000/svg" width="129" height="129" viewBox="0 0 129 129"><rect width="129" height="129" rx="45" fill="#232f3f"/><g transform="translate(-761 -238)"><g transform="translate(783.5 245.7)"><path d="M48.107,53.331c0,4.275.1,7.839-2.055,11.638-1.742,3.09-4.514,4.986-7.593,4.986-4.208,0-6.671-3.2-6.671-7.956,0-9.344,8.382-11.042,16.319-11.042ZM59.169,80.08a2.273,2.273,0,0,1-2.594.255c-3.646-3.028-4.3-4.428-6.289-7.311C44.265,79.158,40,81,32.2,81c-9.237,0-16.42-5.7-16.42-17.1a18.634,18.634,0,0,1,11.7-17.931c5.952-2.613,14.267-3.087,20.629-3.8V40.743c0-2.611.2-5.7-1.335-7.956a7.329,7.329,0,0,0-6.157-2.849c-4.184,0-7.905,2.143-8.818,6.587a2.319,2.319,0,0,1-1.908,2.018L19.257,37.391A1.93,1.93,0,0,1,17.621,35.1c2.442-12.9,14.092-16.8,24.532-16.8,5.337,0,12.316,1.425,16.524,5.462C64.014,28.751,63.5,35.4,63.5,42.644V59.735c0,5.141,2.134,7.4,4.14,10.17.7,1,.86,2.183-.034,2.911-2.241,1.879-6.225,5.339-8.415,7.288Z" fill="#fff" fill-rule="evenodd"/></g><g transform="translate(783.5 245.7)"><path d="M74.2,83.121a81.72,81.72,0,0,1-31.33,6.41A82.6,82.6,0,0,1,1.8,78.632c-1.024-.6-1.781.454-.931,1.223a60.81,60.81,0,0,0,41.05,15.662c11.345,0,24.518-3.569,33.607-10.274C77.027,84.131,75.74,82.468,74.2,83.121Zm2.713,8.166c-.332.829.381,1.165,1.131.535,4.875-4.08,6.134-12.623,5.135-13.858s-9.513-2.277-14.716,1.374c-.8.565-.66,1.338.226,1.233,2.93-.352,9.45-1.135,10.613.355S78.013,88.546,76.916,91.287Z" fill="#f90" fill-rule="evenodd"/></g></g></svg>