<svg xmlns="http://www.w3.org/2000/svg" width="129" height="129" viewBox="0 0 129 129"><rect width="129" height="129" rx="45" fill="#fd0"/><g transform="translate(36 23)"><path d="M788.39,296.457l-.057-.034-.132-.04a.314.314,0,0,0,.189.074Z" transform="translate(-737.051 -277.149)" fill="#0d0c22"/><path d="M802.98,388.891l-.064.018Z" transform="translate(-750.811 -363.654)" fill="#0d0c22"/><path d="M791.137,297.3l-.024-.006a.1.1,0,0,0,0,.016.048.048,0,0,0,.024-.01Z" transform="translate(-739.774 -277.998)" fill="#0d0c22"/><path d="M791.113,297.452h.008v-.005Z" transform="translate(-739.774 -278.144)" fill="#0d0c22"/><path d="M803.111,387.149l.1-.055.036-.02.032-.035a.549.549,0,0,0-.164.109Z" transform="translate(-750.994 -361.923)" fill="#0d0c22"/><path d="M791.4,297.729l-.094-.089-.064-.035a.265.265,0,0,0,.157.124Z" transform="translate(-739.896 -278.292)" fill="#0d0c22"/><path d="M427.267,1186.18a.49.49,0,0,0-.191.147l.059-.037C427.175,1186.253,427.232,1186.209,427.267,1186.18Z" transform="translate(-399.361 -1109.204)" fill="#0d0c22"/><path d="M640.714,1143.993c0-.084-.041-.069-.031.232a.4.4,0,0,1,.015-.072C640.7,1144.1,640.707,1144.047,640.714,1143.993Z" transform="translate(-599.104 -1069.713)" fill="#0d0c22"/><path d="M616.533,1186.18a.49.49,0,0,0-.191.147l.059-.037C616.441,1186.253,616.5,1186.209,616.533,1186.18Z" transform="translate(-576.345 -1109.204)" fill="#0d0c22"/><path d="M278.408,1194.7a.409.409,0,0,0-.2-.094c.06.029.121.058.161.08Z" transform="translate(-260.153 -1117.087)" fill="#0d0c22"/><path d="M246.7,1160.41a.643.643,0,0,0-.079-.25,2.065,2.065,0,0,1,.077.245Z" transform="translate(-230.615 -1084.872)" fill="#0d0c22"/><path d="M239.529,560.281c-2.981,1.276-6.365,2.723-10.75,2.723a20.351,20.351,0,0,1-5.427-.748l3.033,31.137a5.2,5.2,0,0,0,5.185,4.774s4.3.223,5.735.223c1.544,0,6.175-.223,6.175-.223a5.2,5.2,0,0,0,5.184-4.774l3.248-34.407a13.817,13.817,0,0,0-4.568-.825C244.489,558.16,242.188,559.144,239.529,560.281Z" transform="translate(-208.859 -521.94)" fill="#fff"/><path d="M78.688,386.132l.051.048.034.02a.513.513,0,0,0-.085-.068Z" transform="translate(-73.582 -361.074)" fill="#0d0c22"/><path d="M57.079,22.184l-.457-2.3c-.41-2.067-1.34-4.02-3.461-4.767a5.2,5.2,0,0,1-1.973-.836,3.42,3.42,0,0,1-.8-1.975c-.223-1.308-.433-2.616-.662-3.921a12.578,12.578,0,0,0-.869-3.412,6.014,6.014,0,0,0-3.443-2.726,19.825,19.825,0,0,0-2.165-.67A52.968,52.968,0,0,0,32.615.136a89.312,89.312,0,0,0-12.8.212A38.034,38.034,0,0,0,10.309,2.08a8.053,8.053,0,0,0-3.07,1.732,3.321,3.321,0,0,0-.612,3.961,5.128,5.128,0,0,0,2.392,2.01A19.4,19.4,0,0,0,12.9,11.046a63.433,63.433,0,0,0,11.368,1.282,86.568,86.568,0,0,0,12.618-.412q1.554-.171,3.1-.41A2.353,2.353,0,0,0,41.63,8.622a2.417,2.417,0,0,0-2.884-1.638c-.192.03-.383.058-.575.086l-.138.02q-.662.084-1.324.156-1.368.147-2.742.241c-2.052.143-4.11.209-6.167.212-2.021,0-4.043-.057-6.06-.19q-1.38-.09-2.754-.23c-.416-.044-.832-.089-1.247-.141l-.4-.05-.086-.012-.41-.059c-.837-.126-1.675-.271-2.5-.447a.376.376,0,0,1,0-.735h.016c.718-.153,1.441-.284,2.167-.4l.728-.112h.007c.454-.03.911-.112,1.363-.165A86.711,86.711,0,0,1,30.47,4.744c1.919.056,3.838.169,5.748.363.411.042.82.087,1.228.137.156.019.314.041.471.06l.317.046q1.387.207,2.759.5c1.356.295,3.1.391,3.7,1.876a8.865,8.865,0,0,1,.385,1.49l.135.631a.219.219,0,0,1,.008.035q.479,2.233.959,4.466a.818.818,0,0,1-.688.982h-.009l-.2.027-.193.026q-.918.12-1.838.223-1.812.207-3.63.357-3.612.3-7.239.394-1.848.049-3.695.046a128.213,128.213,0,0,1-14.665-.853c-.527-.062-1.054-.13-1.581-.2.409.052-.3-.04-.44-.06q-.5-.07-1-.146c-1.124-.169-2.242-.376-3.364-.558a5.848,5.848,0,0,0-3.881.558A5.645,5.645,0,0,0,1.42,17.569,14.144,14.144,0,0,0,.5,21.031a12.021,12.021,0,0,0-.466,3.648,5.826,5.826,0,0,0,4.741,5.2c2.464.447,4.942.808,7.426,1.117a137.239,137.239,0,0,0,29.409.427q1.2-.112,2.388-.243a1.675,1.675,0,0,1,1.849,1.836l-.248,2.41L44.1,50.025q-.782,7.669-1.573,15.336l-.447,4.318c-.143,1.417-.163,2.879-.432,4.279a4.974,4.974,0,0,1-4.09,4.049,28.5,28.5,0,0,1-6.072.71c-2.266.012-4.53-.088-6.8-.076-2.419.014-5.381-.21-7.248-2.01-1.64-1.581-1.867-4.057-2.09-6.2q-.447-4.251-.885-8.5L12.824,46.18,11.762,35.986c-.018-.169-.036-.335-.052-.5a2.4,2.4,0,0,0-2.345-2.345,2.369,2.369,0,0,0-2.345,2.345l.787,7.557L9.435,58.671q.7,6.66,1.388,13.323c.089.851.173,1.7.267,2.555.51,4.65,4.061,7.155,8.458,7.861a54.782,54.782,0,0,0,7.805.541,50.653,50.653,0,0,0,10-.423c4.87-.894,8.523-4.145,9.044-9.188l.447-4.369q.743-7.227,1.483-14.455l1.615-15.744.74-7.215a1.675,1.675,0,0,1,1.349-1.473,6.576,6.576,0,0,0,3.714-1.794A6.333,6.333,0,0,0,57.079,22.184ZM4.7,23.741c.021-.01-.018.172-.035.257C4.662,23.869,4.669,23.755,4.7,23.741Zm.135,1.045c.011-.008.045.037.079.09-.052-.049-.086-.086-.08-.09Zm.133.175c.048.082.074.133,0,0Zm.267.217h.007c0,.008.012.016.017.023a.173.173,0,0,0-.025-.023Zm46.732-.324a3.678,3.678,0,0,1-2,.807,140.96,140.96,0,0,1-25.27,1.59A170.106,170.106,0,0,1,6.693,25.528a2.647,2.647,0,0,1-1.625-.622c-.759-.815-.386-2.457-.189-3.441.181-.9.527-2.1,1.6-2.233,1.675-.2,3.62.51,5.277.762q2.992.457,6.007.731A115.991,115.991,0,0,0,43.6,20.241q2.335-.314,4.653-.729c1.377-.247,2.9-.71,3.735.716A5.922,5.922,0,0,1,52.55,23.6a1.878,1.878,0,0,1-.584,1.257Z" transform="translate(0 0)" fill="#0d0c22"/></g></svg>