<svg xmlns="http://www.w3.org/2000/svg" xmlns:xlink="http://www.w3.org/1999/xlink" width="129" height="129" viewBox="0 0 129 129"><defs><linearGradient id="a" x1="0.5" x2="0.5" y2="1" gradientUnits="objectBoundingBox"><stop offset="0" stop-color="#5458ca"/><stop offset="0.345" stop-color="#ad30bc"/><stop offset="0.696" stop-color="#f64f4f"/><stop offset="1" stop-color="#ffbe50"/></linearGradient></defs><rect width="129" height="129" rx="45" fill="url(#a)"/><g transform="translate(23 22.999)"><g transform="translate(0 0.001)"><g transform="translate(0 0)"><path d="M308.36,7279.494c-6.756.33-12.612,1.949-17.343,6.68s-6.374,10.625-6.677,17.3c-.191,4.15-1.3,35.691,1.917,43.952a20.9,20.9,0,0,0,12.081,12.034,29.106,29.106,0,0,0,10.022,1.909c36.769,1.659,50.4.786,56.15-13.943a29.969,29.969,0,0,0,1.917-10c1.681-36.852-.274-44.862-6.681-51.254-5.084-5.063-11.064-8.508-51.386-6.68m.336,74.492a24.355,24.355,0,0,1-7.669-1.412,13.611,13.611,0,0,1-7.835-7.845c-2.453-6.267-1.639-36.1-1.419-40.918.212-4.73,1.17-9.047,4.507-12.408,4.129-4.107,9.466-6.143,45.791-4.48,4.739.206,9.072,1.159,12.417,4.48,4.129,4.107,6.179,9.5,4.511,45.691a22.581,22.581,0,0,1-1.419,7.635c-3.739,9.586-12.338,10.915-48.883,9.257m33.777-55.528a4.957,4.957,0,1,0,4.955-4.94,4.937,4.937,0,0,0-4.955,4.94m-38.292,21.994a21.2,21.2,0,1,0,21.2-21.164,21.166,21.166,0,0,0-21.2,21.164m7.441,0a13.764,13.764,0,1,1,13.761,13.738,13.739,13.739,0,0,1-13.761-13.738" transform="translate(-284 -7278.998)" fill="#fff" fill-rule="evenodd"/></g></g></g></svg>