<svg xmlns="http://www.w3.org/2000/svg" width="129" height="129" viewBox="0 0 129 129"><rect width="129" height="129" rx="45" fill="#0077b5"/><g transform="translate(26.736 17.22)"><path d="M17.419,83.018V34.951H1.444V83.018H17.419ZM9.433,28.391c5.569,0,9.038-3.694,9.038-8.306-.105-4.715-3.469-8.3-8.933-8.3S.5,15.37.5,20.085c0,4.612,3.467,8.306,8.828,8.306h.105ZM26.26,83.018s.21-43.556,0-48.066H42.237v6.971h-.106c2.1-3.28,5.886-8.1,14.5-8.1,10.513,0,18.394,6.87,18.394,21.634V83.018H59.054V57.3c0-6.461-2.311-10.87-8.094-10.87a8.744,8.744,0,0,0-8.2,5.846,10.906,10.906,0,0,0-.525,3.9V83.018Z" fill="#fff" fill-rule="evenodd"/></g></svg>