<svg xmlns="http://www.w3.org/2000/svg" width="129" height="129" viewBox="0 0 129 129"><rect width="129" height="129" rx="45" fill="#010101"/><g transform="translate(23 42)"><path d="M46.273,28.636A22.636,22.636,0,1,1,23.636,6,22.636,22.636,0,0,1,46.273,28.636Z" transform="translate(-1 -6)" fill="#fff"/><path d="M28.545,25.864c0,10.418-1.689,18.864-3.773,18.864S21,36.282,21,25.864,22.689,7,24.773,7,28.545,15.446,28.545,25.864Z" transform="translate(54.455 -3.227)" fill="#fff"/><path d="M25.318,51.273c6.251,0,11.318-10.135,11.318-22.636S31.569,6,25.318,6,14,16.135,14,28.636,19.067,51.273,25.318,51.273Z" transform="translate(35.045 -6)" fill="#fff"/></g></svg>