<svg xmlns="http://www.w3.org/2000/svg" width="129" height="129" viewBox="0 0 129 129"><rect width="129" height="129" rx="45" fill="#2dc0ff"/><g transform="translate(24.436 24.395)"><rect width="82" height="82" transform="translate(-0.436 -0.395)" fill="none"/><path d="M37.893,75a25.393,25.393,0,1,0,25.393,25.393A25.393,25.393,0,0,0,37.893,75Zm0,33.011a7.608,7.608,0,1,1,5.39-2.228,7.618,7.618,0,0,1-5.39,2.228Z" transform="translate(-10.245 -60.041)" fill="#fff" opacity="0.8"/><path d="M166.041,94.045c6.452,1.857,14.068,0,14.068,0-2.21,9.649-9.219,15.693-19.325,16.428A25.338,25.338,0,0,1,137.5,125.785l7.618-24.212C152.949,76.686,156.963,75,175.534,75h12.751C186.152,84.4,178.8,91.572,166.041,94.045Z" transform="translate(-109.852 -60.041)" fill="#fff"/></g></svg>