<svg xmlns="http://www.w3.org/2000/svg" width="129" height="129" viewBox="0 0 129 129"><rect width="129" height="129" rx="45" fill="#cc2127"/><circle cx="41.5" cy="41.5" r="41.5" transform="translate(23 23)" fill="#fff"/><g transform="translate(23 23)"><path d="M341.5,260a41.5,41.5,0,0,0-16.655,79.511,36.639,36.639,0,0,1,.718-9.531c.8-3.368,5.338-22.611,5.338-22.611a15.984,15.984,0,0,1-1.323-6.569c0-6.149,3.569-10.742,8-10.742,3.773,0,5.6,2.836,5.6,6.232,0,3.792-2.421,9.469-3.664,14.724-1.039,4.408,2.2,7.994,6.548,7.994,7.863,0,13.157-10.1,13.157-22.064,0-9.092-6.125-15.9-17.266-15.9-12.587,0-20.43,9.384-20.43,19.868a11.977,11.977,0,0,0,2.734,8.141,2.011,2.011,0,0,1,.595,2.317c-.2.757-.654,2.6-.844,3.329a1.427,1.427,0,0,1-2.073,1.039c-5.8-2.367-8.5-8.715-8.5-15.857,0-11.786,9.941-25.929,29.659-25.929,15.846,0,26.275,11.475,26.275,23.778,0,16.28-9.049,28.441-22.4,28.441-4.475,0-8.691-2.419-10.136-5.167,0,0-2.411,9.561-2.919,11.4a34.581,34.581,0,0,1-4.178,8.888A41.5,41.5,0,1,0,341.5,260" transform="translate(-300 -260)" fill="#cc2127" fill-rule="evenodd"/></g></svg>