<svg xmlns="http://www.w3.org/2000/svg" width="129" height="129" viewBox="0 0 129 129"><rect width="129" height="129" rx="45" fill="#f74300"/><g transform="translate(8 4)"><path d="M24.656,88.937l2.955.728a3.043,3.043,0,0,0-2.017-3.623Zm8.9-12.714-2.4,1.873a3.043,3.043,0,0,0,4.23.556Zm46.035,0-1.832,2.429a3.043,3.043,0,0,0,4.23-.556Zm8.9,12.714-.937-2.895a3.043,3.043,0,0,0-2.017,3.623ZM56.573,120.774c9.558,0,18.328-2.9,24.777-7.739s10.724-11.753,10.724-19.648H85.988c0,5.55-2.992,10.806-8.29,14.779a35.416,35.416,0,0,1-21.126,6.522v6.086Zm-35.5-27.387c0,7.895,4.274,14.81,10.724,19.648s15.22,7.739,24.777,7.739v-6.086a35.416,35.416,0,0,1-21.126-6.522c-5.3-3.973-8.29-9.229-8.29-14.779Zm.629-5.178a21.613,21.613,0,0,0-.629,5.178h6.086a15.53,15.53,0,0,1,.453-3.723L21.7,88.209ZM16,81.215a11.161,11.161,0,0,0,7.718,10.616l1.874-5.79a5.075,5.075,0,0,1-3.507-4.827ZM27.158,70.058A11.158,11.158,0,0,0,16,81.215h6.086a5.072,5.072,0,0,1,5.072-5.072Zm8.8,4.292a11.146,11.146,0,0,0-8.8-4.293v6.086a5.057,5.057,0,0,1,4,1.953l4.8-3.747ZM56.573,66c-9.593,0-18.394,2.923-24.85,7.794l3.665,4.859a35.391,35.391,0,0,1,21.185-6.566Zm24.85,7.794C74.967,68.924,66.166,66,56.573,66v6.086a35.386,35.386,0,0,1,21.185,6.566Zm.565,4.3a5.057,5.057,0,0,1,4-1.953V70.058a11.143,11.143,0,0,0-8.8,4.292l4.8,3.747Zm4-1.953a5.072,5.072,0,0,1,5.072,5.072h6.086A11.158,11.158,0,0,0,85.988,70.058Zm5.072,5.072a5.075,5.075,0,0,1-3.507,4.827l1.874,5.79a11.161,11.161,0,0,0,7.718-10.616Zm1.014,12.172a21.619,21.619,0,0,0-.629-5.178l-5.91,1.455a15.53,15.53,0,0,1,.453,3.723Z" transform="translate(0 -21.685)" fill="#fff"/><ellipse cx="6" cy="6.5" rx="6" ry="6.5" transform="translate(36.146 60.089)" fill="#fff"/><ellipse cx="6" cy="6.5" rx="6" ry="6.5" transform="translate(65.146 60.089)" fill="#fff"/><path d="M96.344,138s-4.057,3.043-12.172,3.043S72,138,72,138" transform="translate(-27.599 -57.17)" fill="none" stroke="#fff" stroke-linecap="round" stroke-width="6"/><circle cx="6" cy="6" r="6" transform="translate(76.146 23.089)" fill="none" stroke="#fff" stroke-width="12"/><path d="M98.711,22.06a3.043,3.043,0,0,0-3.564,2.309L90.075,46.684a3.043,3.043,0,1,0,5.935,1.349l4.414-19.424,12.209,2.442a6.1,6.1,0,0,1,1.2-5.968L98.711,22.059Z" transform="translate(-36.469)" fill="#fff" fill-rule="evenodd"/></g></svg>