<svg xmlns="http://www.w3.org/2000/svg" width="129" height="129" viewBox="0 0 129 129"><rect width="129" height="129" rx="45" fill="#fffa37"/><g transform="translate(10.842 10.842)"><circle cx="51.5" cy="51.5" r="51.5" transform="translate(2.158 2.158)" fill="#fffa37"/><path d="M64.141,14.065C60.578,9.575,54.7,6,45.638,6c-7.76.076-23.279,4.371-23.279,20.939,0,2.419.192,5.66.359,8.046a5.863,5.863,0,0,1-.824-.349l-.053-.025a6.909,6.909,0,0,0-3.15-.823,6.316,6.316,0,0,0-3.9,1.412,4.829,4.829,0,0,0-1.921,3.683,4.736,4.736,0,0,0,2.378,4.071,16.268,16.268,0,0,0,3.711,1.58l.112.037A13.531,13.531,0,0,1,21.8,45.657c.479.3.551.487.56.666a1.752,1.752,0,0,1-.053.17,6.47,6.47,0,0,1-.334.745,22.02,22.02,0,0,1-1.334,2.2,29.67,29.67,0,0,1-3.487,4.307,22.475,22.475,0,0,1-4.362,3.113,17.193,17.193,0,0,1-2.43,1.133,5.4,5.4,0,0,1-1.681.383,2.569,2.569,0,0,0-.619.083,4.094,4.094,0,0,0-.448.141,4.893,4.893,0,0,0-1,.515A3.4,3.4,0,0,0,5,61.911a3.915,3.915,0,0,0,.48,1.934A5.3,5.3,0,0,0,6.285,64.9l.029.031.054.059a11.011,11.011,0,0,0,4.616,2.532,28.071,28.071,0,0,0,4.8,1.048c.023.105.047.218.073.342l.008.04a15.357,15.357,0,0,0,.438,1.715,4.342,4.342,0,0,0,1.231,1.968,4.3,4.3,0,0,0,2.818.82,24.581,24.581,0,0,0,2.675-.227l.077-.009a33.007,33.007,0,0,1,3.984-.312c2.517,0,4.13,1.051,6.662,2.78l.017.012c.877.6,1.859,1.269,2.974,1.929a15.164,15.164,0,0,0,8.491,2.177h.647a15.4,15.4,0,0,0,8.576-2.177c1.116-.659,2.1-1.33,2.974-1.929l.017-.012c2.531-1.729,4.145-2.78,6.662-2.78a33.008,33.008,0,0,1,3.984.312l.077.009a24.574,24.574,0,0,0,2.674.227,4.3,4.3,0,0,0,2.818-.82,4.345,4.345,0,0,0,1.23-1.968,15.334,15.334,0,0,0,.438-1.715l.008-.04c.026-.124.05-.237.073-.342a28.075,28.075,0,0,0,4.8-1.048,11.012,11.012,0,0,0,4.616-2.532l.055-.058L84.9,64.9a5.292,5.292,0,0,0,.805-1.058,3.914,3.914,0,0,0,.48-1.934,3.4,3.4,0,0,0-1.607-2.8,4.9,4.9,0,0,0-1-.515,4.086,4.086,0,0,0-.448-.141,2.569,2.569,0,0,0-.619-.083,5.4,5.4,0,0,1-1.681-.383,17.212,17.212,0,0,1-2.43-1.133,22.48,22.48,0,0,1-4.362-3.113,29.654,29.654,0,0,1-3.487-4.307,21.98,21.98,0,0,1-1.334-2.2,6.5,6.5,0,0,1-.334-.745c-.032-.089-.047-.144-.053-.17.009-.179.082-.368.56-.666a13.531,13.531,0,0,1,2.723-1.086l.112-.037a16.264,16.264,0,0,0,3.711-1.58,4.736,4.736,0,0,0,2.378-4.071A4.829,4.829,0,0,0,76.4,35.2a6.315,6.315,0,0,0-3.9-1.412,6.91,6.91,0,0,0-3.15.823l-.053.025a5.886,5.886,0,0,1-.824.349c.167-2.386.359-5.627.359-8.046A21.8,21.8,0,0,0,64.141,14.065ZM30.033,16.233a18.3,18.3,0,0,0-3.969,10.706c0,2.421.205,5.785.378,8.2a3.191,3.191,0,0,1-.806,2.476,3.408,3.408,0,0,1-2.532.994,6.212,6.212,0,0,1-2.792-.745l-.07-.034a3.319,3.319,0,0,0-1.551-.474,2.534,2.534,0,0,0-1.513.575,1.361,1.361,0,0,0-.6.956c0,.43.158.737.741,1.113a13.562,13.562,0,0,0,2.952,1.2l.112.037a16.125,16.125,0,0,1,3.43,1.432,4.3,4.3,0,0,1,2.252,3.708,3.879,3.879,0,0,1-.254,1.274,9.828,9.828,0,0,1-.516,1.165,25.438,25.438,0,0,1-1.553,2.571,33.091,33.091,0,0,1-3.972,4.881,26.109,26.109,0,0,1-5.131,3.68,20.953,20.953,0,0,1-2.979,1.382,9.478,9.478,0,0,1-2.738.605l-.074.034a1.085,1.085,0,0,0-.115.067l-.017.012a.514.514,0,0,0,.011.055.278.278,0,0,0,.028.07,2.207,2.207,0,0,0,.32.38l.06.064a7.683,7.683,0,0,0,3.022,1.526,24.823,24.823,0,0,0,5.033,1,2.162,2.162,0,0,1,1.552.9,3.119,3.119,0,0,1,.408.814,11.379,11.379,0,0,1,.325,1.284l.013.059a12.582,12.582,0,0,0,.34,1.364,2.776,2.776,0,0,0,.123.311,3.237,3.237,0,0,0,.387.018,20.383,20.383,0,0,0,2.344-.214,36.337,36.337,0,0,1,4.407-.335c3.775,0,6.265,1.7,8.671,3.346l.135.092c.89.608,1.782,1.216,2.786,1.809a11.394,11.394,0,0,0,6.551,1.65h.644a11.624,11.624,0,0,0,6.64-1.65c1-.593,1.9-1.2,2.786-1.809l.135-.092c2.406-1.644,4.9-3.346,8.671-3.346a36.34,36.34,0,0,1,4.407.335l.037,0a22.326,22.326,0,0,0,2.307.209,3.234,3.234,0,0,0,.386-.018,2.821,2.821,0,0,0,.124-.311,12.669,12.669,0,0,0,.34-1.364l.013-.059a11.325,11.325,0,0,1,.325-1.284,3.123,3.123,0,0,1,.408-.814,2.163,2.163,0,0,1,1.552-.9,24.818,24.818,0,0,0,5.033-1,7.689,7.689,0,0,0,3.022-1.525l.06-.064a2.23,2.23,0,0,0,.32-.38.275.275,0,0,0,.027-.07.482.482,0,0,0,.011-.055l-.017-.012a1.082,1.082,0,0,0-.116-.067c-.026-.013-.051-.024-.074-.034a9.479,9.479,0,0,1-2.739-.605,20.947,20.947,0,0,1-2.979-1.382,26.119,26.119,0,0,1-5.131-3.68,33.1,33.1,0,0,1-3.972-4.881A25.437,25.437,0,0,1,65.9,48.813a9.829,9.829,0,0,1-.516-1.165,3.879,3.879,0,0,1-.254-1.274,4.3,4.3,0,0,1,2.252-3.708,16.128,16.128,0,0,1,3.43-1.432l.112-.037A13.572,13.572,0,0,0,73.871,40c.582-.376.74-.683.74-1.113a1.36,1.36,0,0,0-.6-.956,2.535,2.535,0,0,0-1.513-.575,3.32,3.32,0,0,0-1.551.474l-.07.034a6.212,6.212,0,0,1-2.792.745,3.408,3.408,0,0,1-2.532-.994,3.191,3.191,0,0,1-.806-2.476c.173-2.412.378-5.776.378-8.2A18.346,18.346,0,0,0,61.2,16.228c-2.866-3.612-7.658-6.664-15.558-6.664S32.922,12.617,30.033,16.233Z" transform="translate(8.063 10.754)" fill-rule="evenodd"/><path d="M27.326,13.634A18.293,18.293,0,0,0,23.357,24.34c0,2.421.205,5.785.378,8.2a3.2,3.2,0,0,1-.806,2.476,3.408,3.408,0,0,1-2.532.994,6.213,6.213,0,0,1-2.792-.745l-.07-.034a3.324,3.324,0,0,0-1.551-.474,2.536,2.536,0,0,0-1.513.575,1.362,1.362,0,0,0-.6.956c0,.43.158.736.741,1.113a13.544,13.544,0,0,0,2.952,1.2l.112.037a16.125,16.125,0,0,1,3.43,1.432,4.306,4.306,0,0,1,2.252,3.708A3.879,3.879,0,0,1,23.1,45.05a9.89,9.89,0,0,1-.516,1.165,25.378,25.378,0,0,1-1.554,2.571,33.108,33.108,0,0,1-3.972,4.881,26.091,26.091,0,0,1-5.131,3.68A20.87,20.87,0,0,1,8.951,58.73a9.454,9.454,0,0,1-2.738.605c-.023.01-.048.021-.074.034a1.081,1.081,0,0,0-.115.067l-.018.012a.507.507,0,0,0,.011.056.277.277,0,0,0,.028.07,2.206,2.206,0,0,0,.32.38l.06.064a7.693,7.693,0,0,0,3.022,1.526,24.824,24.824,0,0,0,5.033,1,2.163,2.163,0,0,1,1.552.9,3.127,3.127,0,0,1,.408.815,11.374,11.374,0,0,1,.325,1.284l.013.059a12.606,12.606,0,0,0,.34,1.364,2.807,2.807,0,0,0,.123.311,3.337,3.337,0,0,0,.387.017,20.384,20.384,0,0,0,2.344-.213,36.34,36.34,0,0,1,4.407-.335c3.775,0,6.265,1.7,8.671,3.346l.135.092c.891.608,1.783,1.217,2.786,1.81a11.393,11.393,0,0,0,6.551,1.65h.645a11.625,11.625,0,0,0,6.64-1.65c1-.593,1.9-1.2,2.786-1.81l.135-.092c2.406-1.644,4.9-3.346,8.671-3.346a36.339,36.339,0,0,1,4.407.335l.037,0a22.2,22.2,0,0,0,2.307.209,3.334,3.334,0,0,0,.386-.017,2.79,2.79,0,0,0,.123-.311A12.611,12.611,0,0,0,69,65.6l.013-.059a11.423,11.423,0,0,1,.326-1.284,3.124,3.124,0,0,1,.408-.815,2.162,2.162,0,0,1,1.552-.9,24.819,24.819,0,0,0,5.033-1,7.688,7.688,0,0,0,3.022-1.526l.06-.064a2.23,2.23,0,0,0,.32-.38.276.276,0,0,0,.027-.07.476.476,0,0,0,.011-.056l-.017-.012a1.081,1.081,0,0,0-.116-.067c-.026-.013-.051-.025-.074-.034a9.455,9.455,0,0,1-2.738-.605,20.866,20.866,0,0,1-2.979-1.382,26.08,26.08,0,0,1-5.131-3.68,33.137,33.137,0,0,1-3.972-4.881,25.512,25.512,0,0,1-1.554-2.571,9.948,9.948,0,0,1-.516-1.165,3.888,3.888,0,0,1-.254-1.274,4.306,4.306,0,0,1,2.252-3.708,16.126,16.126,0,0,1,3.43-1.432l.112-.037a13.543,13.543,0,0,0,2.952-1.2c.582-.377.741-.683.741-1.113a1.361,1.361,0,0,0-.6-.956,2.536,2.536,0,0,0-1.512-.575,3.324,3.324,0,0,0-1.551.474l-.07.034a6.212,6.212,0,0,1-2.792.745,3.408,3.408,0,0,1-2.532-.994,3.192,3.192,0,0,1-.806-2.476c.173-2.412.378-5.776.378-8.2a18.346,18.346,0,0,0-3.93-10.71c-2.866-3.612-7.658-6.664-15.558-6.664S30.215,10.018,27.326,13.634Z" transform="translate(10.769 13.352)" fill="#fff" fill-rule="evenodd"/></g></svg>