<svg xmlns="http://www.w3.org/2000/svg" width="129" height="129" viewBox="0 0 129 129"><rect width="129" height="129" rx="45" fill="#ff4300"/><g transform="translate(23 39.359)"><path d="M301,507.306a2.728,2.728,0,0,0,1.121,2.369,3.02,3.02,0,0,0,2.395.567,2.681,2.681,0,0,0,1.679-.861,3.454,3.454,0,0,0,.482-2.075V495.947a2.816,2.816,0,0,0-.83-2.056,2.736,2.736,0,0,0-2.027-.842,2.694,2.694,0,0,0-1.99.842,2.816,2.816,0,0,0-.83,2.056v11.359Zm8.883,4.855a1.963,1.963,0,0,0,.792,1.7,3.394,3.394,0,0,0,2.028.567,3.469,3.469,0,0,0,2.066-.567,1.963,1.963,0,0,0,.792-1.7V485.685a2.857,2.857,0,0,0-2.858-2.858,2.7,2.7,0,0,0-1.99.842,2.768,2.768,0,0,0-.83,2.016v26.477Zm8.845,1.254a1.947,1.947,0,0,0,.811,1.7,3.569,3.569,0,0,0,2.085.567,3.405,3.405,0,0,0,2.028-.567,1.963,1.963,0,0,0,.792-1.7V489.25a2.884,2.884,0,0,0-.83-2.077,2.668,2.668,0,0,0-1.99-.861,2.769,2.769,0,0,0-2.046.861,2.847,2.847,0,0,0-.851,2.077v24.165Zm8.883.118q0,2.155,2.858,2.154t2.858-2.154V474.366q0-3.289-1.97-3.721a2.747,2.747,0,0,0-2.511.745,3.7,3.7,0,0,0-1.236,2.976v39.167Zm9.038,1.136V472.055q0-2.036,1.2-2.43a21.8,21.8,0,0,1,5.136-.626,22.386,22.386,0,0,1,11.008,2.82,22.8,22.8,0,0,1,8.246,7.7,23.153,23.153,0,0,1,3.649,10.75,12.954,12.954,0,0,1,14.273,2.86,13.278,13.278,0,0,1,0,18.684,12.513,12.513,0,0,1-9.213,3.877l-33.6-.04a.9.9,0,0,1-.521-.43,1.17,1.17,0,0,1-.175-.548Z" transform="translate(-301 -469)" fill="#fff" fill-rule="evenodd"/></g></svg>