<svg xmlns="http://www.w3.org/2000/svg" width="129" height="129" viewBox="0 0 129 129"><rect width="129" height="129" rx="45" fill="#1ecf5f"/><g transform="translate(23 23.692)"><path d="M149.5,7355.5c-13.264-7.9-35.146-8.644-47.813-4.775a3.849,3.849,0,0,1-2.235-7.367c14.54-4.4,38.706-3.58,53.978,5.513a3.834,3.834,0,0,1,1.342,5.271,3.879,3.879,0,0,1-5.272,1.358Zm-.432,11.646a3.225,3.225,0,0,1-4.416,1.069c-11.058-6.789-27.923-8.765-41.006-4.816a3.2,3.2,0,1,1-1.864-6.13c14.943-4.527,33.524-2.347,46.229,5.472a3.194,3.194,0,0,1,1.058,4.406Zm-5.037,11.192a2.543,2.543,0,0,1-3.527.865c-9.663-5.926-21.828-7.244-36.154-3.951a2.605,2.605,0,0,1-3.07-1.935,2.571,2.571,0,0,1,1.93-3.086c15.676-3.582,29.121-2.017,39.969,4.607a2.535,2.535,0,0,1,.852,3.5ZM125.154,7319a41.154,41.154,0,1,0,41.154,41.153A41.16,41.16,0,0,0,125.154,7319Z" transform="translate(-84 -7319)" fill-rule="evenodd"/></g></svg>