<svg xmlns="http://www.w3.org/2000/svg" width="129" height="129" viewBox="0 0 129 129"><rect width="129" height="129" rx="45" fill="#030303"/><g transform="translate(233.914 116.457)"><path d="M267.079,248.192c-8.251,0-12.045-1.017-18.348-4.41-5.461-2.94-10.169-6.875-12.69-12.523-9.03-20.232-6.287-50.491,13.011-60.547,9.8-5.106,25.344-5.667,35.3-.605,9.55,4.855,14.17,12.43,17.993,22.148l-7.8,2.229c-3.6-13.089-12.284-20.341-26.375-20.341-5.569,0-10.622.559-14.869,2.665-10.158,5.033-14.321,16.841-14.73,28.8-.3,8.691,1.107,17.464,4.985,23.776,4.436,7.219,13.654,11.784,22.3,11.784,8.094,0,14.606-1.407,19.629-6.118,6.84-6.417,8.266-16.65-.453-22.889-2.686,22.921-33.767,21.613-33.767,3.4a13.3,13.3,0,0,1,4.413-9.9c5.842-5.6,14.633-3.944,21.964-4.055-.773-3.46-3.715-8.473-9.361-8.473-4.351,0-8.1,1.094-10.116,4.463l-6.074-3.94c2.572-4.83,7.759-8,15.716-8a16.8,16.8,0,0,1,17.038,15.081l.4,3.049a22.108,22.108,0,0,1,9.984,8.611c6.321,9.591,2.836,21.9-6.191,29.544q-7.387,6.261-21.953,6.261ZM258.511,215.4c0,3.753,3.982,6.56,7.837,6.56q6.451,0,8.87-3.638a15.467,15.467,0,0,0,2.419-8.763c-4.418-1.123-12.1-1.928-16.177.768a5.811,5.811,0,0,0-2.948,5.073Z" transform="translate(-436.003 -259.04)" fill="#fff"/></g></svg>