<svg xmlns="http://www.w3.org/2000/svg" width="129" height="129" viewBox="0 0 129 129"><rect width="129" height="129" rx="45"/><g transform="translate(23.577 21.5)"><path d="M10.1,52.5c.481-3.981,2.114-6.21,5.191-8.5,4.4-3.095,9.9-1.344,9.9-1.344V32.272a23.62,23.62,0,0,1,4,.237V45.873s-5.5-1.75-9.9,1.346c-3.075,2.283-4.712,4.514-5.191,8.5a11.944,11.944,0,0,0,2.259,7.431q-.693-.355-1.413-.81A11.185,11.185,0,0,1,10.1,52.5ZM51.9,13.07a18,18,0,0,1-4.588-9.023h3.81s-.76,6.172,4.777,12.241l.077.082A21.948,21.948,0,0,1,51.9,13.07Zm18.353,9.409v13.1a49.29,49.29,0,0,1-8.459-1.106,33.061,33.061,0,0,1-8.253-3.244s-2.23-1.4-2.411-1.5V56.77a26.209,26.209,0,0,1-1.67,8.4,25.33,25.33,0,0,1-4.64,7.346,25.821,25.821,0,0,1-19,8.3,26.756,26.756,0,0,1-14.124-4.053,28.077,28.077,0,0,1-4.034-3.242l.033.024A26.759,26.759,0,0,0,21.816,77.6a25.822,25.822,0,0,0,19-8.3,25.287,25.287,0,0,0,4.64-7.348,26.3,26.3,0,0,0,1.67-8.4V26.511c.18.1,2.409,1.5,2.409,1.5a33.012,33.012,0,0,0,8.254,3.244,49.324,49.324,0,0,0,8.46,1.106V22.1A13.471,13.471,0,0,0,70.248,22.479Z" transform="translate(7.598 2.173)" fill="#ee1d52"/><path d="M71.155,22.1V32.357a49.344,49.344,0,0,1-8.46-1.106,33.1,33.1,0,0,1-8.254-3.244s-2.229-1.4-2.409-1.5V53.554a26.2,26.2,0,0,1-1.67,8.4,25.323,25.323,0,0,1-4.64,7.348,25.821,25.821,0,0,1-19,8.3A26.759,26.759,0,0,1,12.6,73.555l-.033-.024a25.617,25.617,0,0,1-1.992-2.163A25.674,25.674,0,0,1,6.8,64.806a.037.037,0,0,1,0-.011,25.469,25.469,0,0,1-1.489-8.743A23.314,23.314,0,0,1,8.366,44.979,26.318,26.318,0,0,1,14.3,38.032a25.018,25.018,0,0,1,7.049-4,24.523,24.523,0,0,1,8.749-1.76V42.657S24.6,40.913,20.2,44c-3.077,2.285-4.71,4.514-5.191,8.5a11.193,11.193,0,0,0,4.842,9.841q.72.456,1.413.81a10.79,10.79,0,0,0,2.588,2.408c4.017,2.543,7.383,2.72,11.687,1.069a10.723,10.723,0,0,0,6.032-6.35,14.808,14.808,0,0,0,.621-5.247V4.046H52.2a18,18,0,0,0,4.588,9.023,21.958,21.958,0,0,0,4.075,3.3,21.27,21.27,0,0,0,5.588,4.095A22.427,22.427,0,0,0,71.155,22.1Z" transform="translate(2.694 2.173)" fill="#fff"/><path d="M4.489,22.757v.008l.249.674C4.709,23.36,4.617,23.122,4.489,22.757Z" transform="translate(1.016 41.033)" fill="#69c9d0"/><path d="M24.039,17.141a25.033,25.033,0,0,0-7.049,4A26.319,26.319,0,0,0,11.06,28.1,23.3,23.3,0,0,0,8,39.176a25.469,25.469,0,0,0,1.489,8.743.037.037,0,0,0,0,.011,26.1,26.1,0,0,0,3.773,6.561,25.571,25.571,0,0,0,1.992,2.163,27.384,27.384,0,0,1-5.99-5.383,25.739,25.739,0,0,1-3.763-6.527.152.152,0,0,1,0-.019v-.011a25.342,25.342,0,0,1-1.491-8.748A23.313,23.313,0,0,1,7.07,24.893,26.283,26.283,0,0,1,13,17.932a24.977,24.977,0,0,1,7.049-4,24.948,24.948,0,0,1,4.972-1.4,25.762,25.762,0,0,1,7.775-.11v2.96A24.526,24.526,0,0,0,24.039,17.141Z" transform="translate(0 19.063)" fill="#69c9d0"/><path d="M41.436,6.22H31.419V57.2a15.021,15.021,0,0,1-.621,5.247A10.758,10.758,0,0,1,24.766,68.8c-4.306,1.658-7.671,1.474-11.687-1.069a10.8,10.8,0,0,1-2.594-2.4c3.421,1.749,6.483,1.718,10.276.259a10.749,10.749,0,0,0,6.03-6.35,14.771,14.771,0,0,0,.623-5.246V3H41.246A12,12,0,0,0,41.436,6.22ZM60.379,21.434v2.837a22.43,22.43,0,0,1-4.691-1.634A21.264,21.264,0,0,1,50.1,18.542a15.831,15.831,0,0,0,1.589.877A18.616,18.616,0,0,0,60.379,21.434Z" transform="translate(13.468 0)" fill="#69c9d0"/></g></svg>