<svg xmlns="http://www.w3.org/2000/svg" width="129" height="129" viewBox="0 0 129 129"><rect width="129" height="129" rx="45" fill="#1ecf77"/><g transform="translate(23 23)"><path d="M120.507,105.877c-.162-.078-6.213-3.057-7.288-3.444a4.186,4.186,0,0,0-1.409-.312,2.4,2.4,0,0,0-2.038,1.207c-.6.9-2.434,3.037-3,3.676-.074.084-.175.185-.235.185s-.991-.386-1.274-.509c-6.491-2.82-11.418-9.6-12.093-10.743a.668.668,0,0,1-.1-.239,1.95,1.95,0,0,1,.355-.419c.33-.326.687-.756,1.032-1.172.164-.2.327-.394.488-.58a6.517,6.517,0,0,0,.983-1.56l.136-.272a2.821,2.821,0,0,0-.082-2.656c-.143-.286-2.7-6.452-2.97-7.1-.653-1.563-1.516-2.291-2.716-2.291-.111,0,0,0-.467.02A14.5,14.5,0,0,0,84.8,80.962c-1.451.915-3.906,3.831-3.906,8.96,0,4.616,2.929,8.974,4.187,10.632.031.042.089.127.172.248,4.816,7.034,10.821,12.247,16.907,14.678,5.86,2.341,8.635,2.611,10.212,2.611h0a15.962,15.962,0,0,0,1.662-.1l.3-.028c2.024-.179,6.473-2.485,7.485-5.3.8-2.215,1.007-4.635.477-5.513A3.819,3.819,0,0,0,120.507,105.877Z" transform="translate(-59.092 -58.184)" fill="#fff"/><path d="M42.237,0A40.661,40.661,0,0,0,1.47,40.461,40.163,40.163,0,0,0,7.059,60.922l-7,20.654A1.078,1.078,0,0,0,1.4,82.949l21.537-6.844A40.832,40.832,0,0,0,83,40.461,40.659,40.659,0,0,0,42.237,0Zm0,72.489a32.3,32.3,0,0,1-17.768-5.3,1.078,1.078,0,0,0-.918-.126L12.762,70.5,16.245,60.22a1.078,1.078,0,0,0-.151-.983A31.592,31.592,0,0,1,9.946,40.461,32.29,32.29,0,1,1,42.237,72.489Z" transform="translate(0)" fill="#fff"/></g></svg>