<svg xmlns="http://www.w3.org/2000/svg" width="129" height="129" viewBox="0 0 129 129"><g fill="#026466" stroke="#707070" stroke-width="1"><rect width="129" height="129" rx="45" stroke="none"/><rect x="0.5" y="0.5" width="128" height="128" rx="44.5" fill="none"/></g><g transform="translate(-10.361 22.501)"><path d="M83.192,49.917c4.94,9.4,10.107,18.673,15.4,28.227.715,1.3,1.921,3.108,1.408,4.235-.689,1.516-4.105.9-6.8.9-3.171,0-5.994.573-8.083-.13-2.132-.717-4.061-6.008-5.133-7.955-4.537-8.247-9.378-17.1-13.858-25.149,7.682-14.026,16.747-29.4,24.762-43.882C92.118,3.944,93.121.677,96.023.515c1.376-.075,4.124.13,6.93.13,2.326,0,5.917-.342,6.545.64,1.072,1.684-1.761,4.948-2.567,6.417C99.1,21.93,90.949,35.826,83.192,49.917Zm-29.767,8.6c2.543-.31,3.842-3.862,5-5.9,3.676-6.456,7.422-13.11,10.78-19.118-2.075-3.854-4.835-8.346-7.187-12.446-1.015-1.769-1.783-4.075-4.1-4.105H45.6c-.671.1-1.274.266-1.41.9-.332,2.02.914,3.165,1.54,4.235,1.457,2.5,2.92,4.851,4.49,7.57.5.865,2.091,3.076,2.051,3.978-.024.6-1.234,2.053-1.666,2.823-3.51,6.267-6.389,11.489-9.88,17.706-.519.924-1.668,2-1.283,3.335a1.8,1.8,0,0,0,1.538,1.027Z" transform="translate(0 0)" fill="#fff" fill-rule="evenodd"/></g></svg>