<svg xmlns="http://www.w3.org/2000/svg" width="129" height="129" viewBox="0 0 129 129"><rect width="129" height="129" rx="45" fill="#f70000"/><g transform="translate(23 35.002)"><g transform="translate(0 -0.002)"><g transform="translate(0 0)"><path d="M277.15,7321.805v-23.32c8.271,3.9,14.675,7.676,22.244,11.7-6.246,3.487-13.973,7.348-22.244,11.621m46.078-34.9a10.892,10.892,0,0,0-6.445-3.818c-7.607-1.452-55.059-1.452-62.662,0a10.978,10.978,0,0,0-5.511,2.781c-6.686,6.224-4.59,39.508-2.98,44.9a12.079,12.079,0,0,0,2.66,5.147,10.766,10.766,0,0,0,5.6,2.9c6.262,1.286,38.529,2.035,62.757.208a11,11,0,0,0,5.768-2.99c6.184-6.184,5.76-41.333.809-49.135" transform="translate(-244 -7281.998)" fill="#fff" fill-rule="evenodd"/></g></g></g></svg>